<svg width="111" height="111" viewBox="0 0 111 111" fill="none" xmlns="http://www.w3.org/2000/svg">
<path fill-rule="evenodd" clip-rule="evenodd" d="M55.5 3C55.5 1.34314 54.1549 -0.00844176 52.5004 0.0796753C23.2434 1.63787 0 25.8545 0 55.5C0 86.1518 24.8482 111 55.5 111C86.1518 111 111 86.1518 111 55.5C111 29.4726 93.0839 7.62979 68.9116 1.63136C67.3045 1.23255 65.7297 2.30583 65.417 3.9319V3.9319C65.1038 5.56051 66.1759 7.12555 67.7828 7.53582C89.1792 12.9987 105 32.4018 105 55.5C105 82.8381 82.8381 105 55.5 105C28.1619 105 6 82.8381 6 55.5C6 29.1694 26.5586 7.64044 52.4996 6.08944C54.1535 5.99055 55.5 4.65685 55.5 3V3Z" fill="url(#paint0_linear_6_2999)"/>
<defs>
<linearGradient id="paint0_linear_6_2999" x1="55.5" y1="0.0755973" x2="55.5" y2="111" gradientUnits="userSpaceOnUse">
<stop stop-color="#FF455B"/>
<stop offset="1" stop-color="#FF7245"/>
</linearGradient>
</defs>
</svg>
