<svg width="111" height="111" viewBox="0 0 111 111" fill="none" xmlns="http://www.w3.org/2000/svg">
<path fill-rule="evenodd" clip-rule="evenodd" d="M55.5 2.99999C55.5 1.34314 54.1549 -0.00844694 52.5004 0.0796701C23.2434 1.63786 0 25.8545 0 55.5C0 86.1518 24.8482 111 55.5 111C85.1454 111 109.362 87.7567 110.92 58.4997C111.008 56.8452 109.657 55.5001 108 55.5001V55.5001C106.343 55.5001 105.009 56.8466 104.911 58.5005C103.36 84.4415 81.8306 105 55.5 105C28.1619 105 6 82.8381 6 55.5C6 29.1694 26.5586 7.64043 52.4996 6.08943C54.1535 5.99055 55.5 4.65685 55.5 2.99999V2.99999Z" fill="url(#paint0_linear_6_3116)"/>
<defs>
<linearGradient id="paint0_linear_6_3116" x1="55.4622" y1="0.075592" x2="55.4622" y2="111" gradientUnits="userSpaceOnUse">
<stop stop-color="#FF455B"/>
<stop offset="1" stop-color="#FF7245"/>
</linearGradient>
</defs>
</svg>
