<svg width="14" height="14" viewBox="0 0 14 14" fill="none" xmlns="http://www.w3.org/2000/svg">
<path d="M5.94763 11.6458C5.84763 11.6458 5.75388 11.6283 5.66638 11.5933C5.57888 11.5583 5.49763 11.4994 5.42263 11.4166L2.19763 7.83331C2.06013 7.68054 1.99438 7.48248 2.00038 7.23915C2.00638 6.99581 2.07838 6.79803 2.21638 6.64581C2.35388 6.49303 2.52888 6.41665 2.74138 6.41665C2.95388 6.41665 3.12888 6.49303 3.26638 6.64581L5.94763 9.62498L12.3039 2.56248C12.4414 2.4097 12.6196 2.33331 12.8386 2.33331C13.0576 2.33331 13.2356 2.4097 13.3726 2.56248C13.5101 2.71526 13.5789 2.91331 13.5789 3.15665C13.5789 3.39998 13.5101 3.59776 13.3726 3.74998L6.47263 11.4166C6.39763 11.5 6.31638 11.5591 6.22888 11.5941C6.14138 11.6291 6.04763 11.6464 5.94763 11.6458Z" fill="#FF455B"/>
</svg>
